<?xml version="1.0" encoding="UTF-8" standalone="no"?>
<svg
   xmlns:dc="http://purl.org/dc/elements/1.1/"
   xmlns:cc="http://creativecommons.org/ns#"
   xmlns:rdf="http://www.w3.org/1999/02/22-rdf-syntax-ns#"
   xmlns:svg="http://www.w3.org/2000/svg"
   xmlns="http://www.w3.org/2000/svg"
   xmlns:sodipodi="http://sodipodi.sourceforge.net/DTD/sodipodi-0.dtd"
   xmlns:inkscape="http://www.inkscape.org/namespaces/inkscape"
   version="1.1"
   id="svg2"
   xml:space="preserve"
   width="185.15627"
   height="87.426666"
   viewBox="0 0 185.15626 87.42667"
   sodipodi:docname="logo.svg"
   inkscape:version="1.0.1 (3bc2e813f5, 2020-09-07)"><metadata
     id="metadata8"><rdf:RDF><cc:Work
         rdf:about=""><dc:format>image/svg+xml</dc:format><dc:type
           rdf:resource="http://purl.org/dc/dcmitype/StillImage" /><dc:title></dc:title></cc:Work></rdf:RDF></metadata><defs
     id="defs6"><clipPath
       clipPathUnits="userSpaceOnUse"
       id="clipPath18"><path
         d="M 0,844 H 1118 V 0 H 0 Z"
         id="path16"
         inkscape:connector-curvature="0" /></clipPath><clipPath
       clipPathUnits="userSpaceOnUse"
       id="clipPath38"><path
         d="m 308.443,801.131 c -6.498,0 -11.812,-5.313 -11.812,-11.809 v 0 -118.112 c 0,-6.496 5.314,-11.811 11.812,-11.811 v 0 h 118.109 c 6.496,0 11.812,5.315 11.812,11.811 v 0 118.112 c 0,6.496 -5.316,11.809 -11.812,11.809 v 0 z"
         id="path36"
         inkscape:connector-curvature="0" /></clipPath><clipPath
       clipPathUnits="userSpaceOnUse"
       id="clipPath74"><path
         d="M 0,844 H 1118 V 0 H 0 Z"
         id="path72"
         inkscape:connector-curvature="0" /></clipPath><clipPath
       clipPathUnits="userSpaceOnUse"
       id="clipPath572"><path
         d="m 488.723,24.5 h 612 v 792 h -612 z"
         id="path570"
         inkscape:connector-curvature="0" /></clipPath><clipPath
       clipPathUnits="userSpaceOnUse"
       id="clipPath580"><path
         d="M 851.229,746.025 H 999.974 V 689.282 H 851.229 Z"
         id="path578"
         inkscape:connector-curvature="0" /></clipPath><clipPath
       clipPathUnits="userSpaceOnUse"
       id="clipPath596"><path
         d="M 629.096,1066.07 H 814.535 V 689.28 H 629.096 Z"
         id="path594"
         inkscape:connector-curvature="0" /></clipPath><clipPath
       clipPathUnits="userSpaceOnUse"
       id="clipPath612"><path
         d="M 777.921,1066.07 H 999.975 V 689.28 H 777.921 Z"
         id="path610"
         inkscape:connector-curvature="0" /></clipPath><clipPath
       clipPathUnits="userSpaceOnUse"
       id="clipPath628"><path
         d="M 1002.54,1066.07 H 1181.5 V 689.278 h -178.96 z"
         id="path626"
         inkscape:connector-curvature="0" /></clipPath><clipPath
       clipPathUnits="userSpaceOnUse"
       id="clipPath644"><path
         d="M 0,844 H 1118 V 0 H 0 Z"
         id="path642"
         inkscape:connector-curvature="0" /></clipPath></defs><sodipodi:namedview
     pagecolor="#ffffff"
     bordercolor="#666666"
     borderopacity="1"
     objecttolerance="10"
     gridtolerance="10"
     guidetolerance="10"
     inkscape:pageopacity="0"
     inkscape:pageshadow="2"
     inkscape:window-width="1920"
     inkscape:window-height="969"
     id="namedview4"
     showgrid="false"
     inkscape:zoom="1.6777253"
     inkscape:cx="25.456449"
     inkscape:cy="148.36216"
     inkscape:window-x="2560"
     inkscape:window-y="34"
     inkscape:window-maximized="1"
     inkscape:current-layer="g10"
     inkscape:document-rotation="0" /><g
     id="g10"
     inkscape:groupmode="layer"
     inkscape:label="Tarjetas y hoja membretada_AZ_CMYK"
     transform="matrix(1.3333333,0,0,-1.3333333,-1018.7072,1071.5867)"><g
       id="g1665"
       transform="translate(577.12509,235.98496)"><g
         id="g982"
         transform="translate(203.4233,521.8643)"><path
           d="m 0,0 22.986,-0.002 3.627,-9.875 -30.507,0.002 z"
           style="fill:#bb1648;fill-opacity:1;fill-rule:evenodd;stroke:none"
           id="path984"
           inkscape:connector-curvature="0" /></g><g
         id="g986"
         transform="translate(234.2866,567.7051)"><path
           d="m 0,0 h -12.757 l -25.885,-65.569 h 12.757 z"
           style="fill:#4d133f;fill-opacity:1;fill-rule:evenodd;stroke:none"
           id="path988"
           inkscape:connector-curvature="0" /></g><g
         id="g990"
         transform="translate(286.0674,512.0098)"><path
           d="m 0,0 h -34.623 l -3.895,-9.874 h 34.622 z"
           style="fill:#71c02d;fill-opacity:1;fill-rule:evenodd;stroke:none"
           id="path992"
           inkscape:connector-curvature="0" /></g><g
         id="g994"
         transform="translate(286.0674,567.7051)"><path
           d="m 0,0 h -38.518 l 3.901,-9.875 h 30.721 z"
           style="fill:#71c02d;fill-opacity:1;fill-rule:evenodd;stroke:none"
           id="path996"
           inkscape:connector-curvature="0" /></g><g
         id="g998"
         transform="translate(221.5264,567.7051)"><path
           d="M 0,0 H 12.757 L 38.642,-65.569 H 25.885 Z"
           style="fill:#bb1648;fill-opacity:1;fill-rule:evenodd;stroke:none"
           id="path1000"
           inkscape:connector-curvature="0" /></g><g
         id="g1002"
         transform="translate(286.0669,567.7051)"><path
           d="m 0,0 h -12.757 l -25.885,-65.569 h 12.757 z"
           style="fill:#3caac1;fill-opacity:1;fill-rule:evenodd;stroke:none"
           id="path1004"
           inkscape:connector-curvature="0" /></g><g
         id="g1006"
         transform="translate(325.7725,535.3135)"><path
           d="m 0,0 v -5.114 l -20.481,-8.332 2.598,6.581 12.688,4.341 -9.981,2.517 1.5,3.798 z"
           style="fill:#3caac1;fill-opacity:1;fill-rule:evenodd;stroke:none"
           id="path1008"
           inkscape:connector-curvature="0" /></g><g
         id="g1010"
         transform="translate(186.9053,530.2334)"><path
           d="M 0,0 V 5.113 L 20.481,13.446 17.883,6.864 5.194,2.524 15.176,0.007 13.676,-3.792 Z"
           style="fill:#bb1648;fill-opacity:1;fill-rule:evenodd;stroke:none"
           id="path1012"
           inkscape:connector-curvature="0" /></g><g
         id="g1014"
         transform="translate(317.6558,567.7051)"><path
           d="m 0,0 h -5.257 l -25.885,-65.57 h 5.257 z"
           style="fill:#71c02d;fill-opacity:1;fill-rule:evenodd;stroke:none"
           id="path1016"
           inkscape:connector-curvature="0" /></g></g></g></svg>
